<svg version="1.0" xmlns="http://www.w3.org/2000/svg" xmlns:xlink="http://www.w3.org/1999/xlink"
	 viewBox="0 0 100 100" enable-background="new 0 0 100 100" xml:space="preserve">
	
<svg xmlns="http://www.w3.org/2000/svg" xmlns:xlink="http://www.w3.org/1999/xlink" version="1.1" width="100" height="100" viewBox="0 0 2000 2000" x="0" y="0" shape-rendering="crispEdges"><defs/><rect x="0" y="0" width="2000" height="2000" fill="#ffffff"/><svg viewBox="0 0 4 4" x="776" y="200" width="64" height="64" shape-rendering="auto"><circle fill="#000000" cx="2" cy="2" r="1.75"/></svg><svg viewBox="0 0 4 4" x="1096" y="200" width="64" height="64" shape-rendering="auto"><circle fill="#000000" cx="2" cy="2" r="1.75"/></svg><svg viewBox="0 0 4 4" x="1224" y="200" width="64" height="64" shape-rendering="auto"><circle fill="#000000" cx="2" cy="2" r="1.75"/></svg><svg viewBox="0 0 4 4" x="712" y="264" width="64" height="64" shape-rendering="auto"><path fill="#000000" d="M2,.25a1.75,1.75,0,0,0,0,3.5H4V.25Z"/></svg><svg viewBox="0 0 4 4" x="776" y="264" width="64" height="64" shape-rendering="auto"><path fill="#000000" d="M2,3.75A1.75,1.75,0,0,0,2,.25H0v3.5Z"/></svg><svg viewBox="0 0 4 4" x="904" y="264" width="64" height="64" shape-rendering="auto"><path fill="#000000" d="M2,.25a1.75,1.75,0,0,0,0,3.5H4V.25Z"/></svg><svg viewBox="0 0 4 4" x="968" y="264" width="64" height="64" shape-rendering="auto"><rect fill="#000000" y="0.25" width="4" height="3.5"/></svg><svg viewBox="0 0 4 4" x="1032" y="264" width="64" height="64" shape-rendering="auto"><rect fill="#000000" y="0.25" width="4" height="3.5"/></svg><svg viewBox="0 0 4 4" x="1096" y="264" width="64" height="64" shape-rendering="auto"><path fill="#000000" d="M2,3.75A1.75,1.75,0,0,0,2,.25H0v3.5Z"/></svg><svg viewBox="0 0 4 4" x="776" y="328" width="64" height="64" shape-rendering="auto"><path fill="#000000" d="M2,.25a1.75,1.75,0,0,0,0,3.5H4V.25Z"/></svg><svg viewBox="0 0 4 4" x="840" y="328" width="64" height="64" shape-rendering="auto"><rect fill="#000000" y="0.25" width="4" height="3.5"/></svg><svg viewBox="0 0 4 4" x="904" y="328" width="64" height="64" shape-rendering="auto"><path fill="#000000" d="M2,3.75A1.75,1.75,0,0,0,2,.25H0v3.5Z"/></svg><svg viewBox="0 0 4 4" x="1096" y="328" width="64" height="64" shape-rendering="auto"><circle fill="#000000" cx="2" cy="2" r="1.75"/></svg><svg viewBox="0 0 4 4" x="712" y="392" width="64" height="64" shape-rendering="auto"><path fill="#000000" d="M2,.25a1.75,1.75,0,0,0,0,3.5H4V.25Z"/></svg><svg viewBox="0 0 4 4" x="776" y="392" width="64" height="64" shape-rendering="auto"><path fill="#000000" d="M2,3.75A1.75,1.75,0,0,0,2,.25H0v3.5Z"/></svg><svg viewBox="0 0 4 4" x="904" y="392" width="64" height="64" shape-rendering="auto"><path fill="#000000" d="M2,.25a1.75,1.75,0,0,0,0,3.5H4V.25Z"/></svg><svg viewBox="0 0 4 4" x="968" y="392" width="64" height="64" shape-rendering="auto"><rect fill="#000000" y="0.25" width="4" height="3.5"/></svg><svg viewBox="0 0 4 4" x="1032" y="392" width="64" height="64" shape-rendering="auto"><path fill="#000000" d="M2,3.75A1.75,1.75,0,0,0,2,.25H0v3.5Z"/></svg><svg viewBox="0 0 4 4" x="1160" y="392" width="64" height="64" shape-rendering="auto"><path fill="#000000" d="M2,.25a1.75,1.75,0,0,0,0,3.5H4V.25Z"/></svg><svg viewBox="0 0 4 4" x="1224" y="392" width="64" height="64" shape-rendering="auto"><path fill="#000000" d="M2,3.75A1.75,1.75,0,0,0,2,.25H0v3.5Z"/></svg><svg viewBox="0 0 4 4" x="840" y="456" width="64" height="64" shape-rendering="auto"><circle fill="#000000" cx="2" cy="2" r="1.75"/></svg><svg viewBox="0 0 4 4" x="968" y="456" width="64" height="64" shape-rendering="auto"><circle fill="#000000" cx="2" cy="2" r="1.75"/></svg><svg viewBox="0 0 4 4" x="1160" y="456" width="64" height="64" shape-rendering="auto"><path fill="#000000" d="M2,.25a1.75,1.75,0,0,0,0,3.5H4V.25Z"/></svg><svg viewBox="0 0 4 4" x="1224" y="456" width="64" height="64" shape-rendering="auto"><path fill="#000000" d="M2,3.75A1.75,1.75,0,0,0,2,.25H0v3.5Z"/></svg><svg viewBox="0 0 4 4" x="712" y="520" width="64" height="64" shape-rendering="auto"><circle fill="#000000" cx="2" cy="2" r="1.75"/></svg><svg viewBox="0 0 4 4" x="840" y="520" width="64" height="64" shape-rendering="auto"><circle fill="#000000" cx="2" cy="2" r="1.75"/></svg><svg viewBox="0 0 4 4" x="968" y="520" width="64" height="64" shape-rendering="auto"><path fill="#000000" d="M2,.25a1.75,1.75,0,0,0,0,3.5H4V.25Z"/></svg><svg viewBox="0 0 4 4" x="1032" y="520" width="64" height="64" shape-rendering="auto"><rect fill="#000000" y="0.25" width="4" height="3.5"/></svg><svg viewBox="0 0 4 4" x="1096" y="520" width="64" height="64" shape-rendering="auto"><rect fill="#000000" y="0.25" width="4" height="3.5"/></svg><svg viewBox="0 0 4 4" x="1160" y="520" width="64" height="64" shape-rendering="auto"><path fill="#000000" d="M2,3.75A1.75,1.75,0,0,0,2,.25H0v3.5Z"/></svg><svg viewBox="0 0 4 4" x="712" y="584" width="64" height="64" shape-rendering="auto"><circle fill="#000000" cx="2" cy="2" r="1.75"/></svg><svg viewBox="0 0 4 4" x="840" y="584" width="64" height="64" shape-rendering="auto"><circle fill="#000000" cx="2" cy="2" r="1.75"/></svg><svg viewBox="0 0 4 4" x="968" y="584" width="64" height="64" shape-rendering="auto"><circle fill="#000000" cx="2" cy="2" r="1.75"/></svg><svg viewBox="0 0 4 4" x="1096" y="584" width="64" height="64" shape-rendering="auto"><circle fill="#000000" cx="2" cy="2" r="1.75"/></svg><svg viewBox="0 0 4 4" x="1224" y="584" width="64" height="64" shape-rendering="auto"><circle fill="#000000" cx="2" cy="2" r="1.75"/></svg><svg viewBox="0 0 4 4" x="968" y="648" width="64" height="64" shape-rendering="auto"><circle fill="#000000" cx="2" cy="2" r="1.75"/></svg><svg viewBox="0 0 4 4" x="1224" y="648" width="64" height="64" shape-rendering="auto"><circle fill="#000000" cx="2" cy="2" r="1.75"/></svg><svg viewBox="0 0 4 4" x="200" y="712" width="64" height="64" shape-rendering="auto"><path fill="#000000" d="M2,.25a1.75,1.75,0,0,0,0,3.5H4V.25Z"/></svg><svg viewBox="0 0 4 4" x="264" y="712" width="64" height="64" shape-rendering="auto"><rect fill="#000000" y="0.25" width="4" height="3.5"/></svg><svg viewBox="0 0 4 4" x="328" y="712" width="64" height="64" shape-rendering="auto"><rect fill="#000000" y="0.25" width="4" height="3.5"/></svg><svg viewBox="0 0 4 4" x="392" y="712" width="64" height="64" shape-rendering="auto"><rect fill="#000000" y="0.25" width="4" height="3.5"/></svg><svg viewBox="0 0 4 4" x="456" y="712" width="64" height="64" shape-rendering="auto"><path fill="#000000" d="M2,3.75A1.75,1.75,0,0,0,2,.25H0v3.5Z"/></svg><svg viewBox="0 0 4 4" x="584" y="712" width="64" height="64" shape-rendering="auto"><path fill="#000000" d="M2,.25a1.75,1.75,0,0,0,0,3.5H4V.25Z"/></svg><svg viewBox="0 0 4 4" x="648" y="712" width="64" height="64" shape-rendering="auto"><rect fill="#000000" y="0.25" width="4" height="3.5"/></svg><svg viewBox="0 0 4 4" x="712" y="712" width="64" height="64" shape-rendering="auto"><rect fill="#000000" y="0.25" width="4" height="3.5"/></svg><svg viewBox="0 0 4 4" x="776" y="712" width="64" height="64" shape-rendering="auto"><rect fill="#000000" y="0.25" width="4" height="3.5"/></svg><svg viewBox="0 0 4 4" x="840" y="712" width="64" height="64" shape-rendering="auto"><path fill="#000000" d="M2,3.75A1.75,1.75,0,0,0,2,.25H0v3.5Z"/></svg><svg viewBox="0 0 4 4" x="1160" y="712" width="64" height="64" shape-rendering="auto"><circle fill="#000000" cx="2" cy="2" r="1.75"/></svg><svg viewBox="0 0 4 4" x="1288" y="712" width="64" height="64" shape-rendering="auto"><circle fill="#000000" cx="2" cy="2" r="1.75"/></svg><svg viewBox="0 0 4 4" x="1416" y="712" width="64" height="64" shape-rendering="auto"><circle fill="#000000" cx="2" cy="2" r="1.75"/></svg><svg viewBox="0 0 4 4" x="1544" y="712" width="64" height="64" shape-rendering="auto"><circle fill="#000000" cx="2" cy="2" r="1.75"/></svg><svg viewBox="0 0 4 4" x="1672" y="712" width="64" height="64" shape-rendering="auto"><circle fill="#000000" cx="2" cy="2" r="1.75"/></svg><svg viewBox="0 0 4 4" x="264" y="776" width="64" height="64" shape-rendering="auto"><path fill="#000000" d="M2,.25a1.75,1.75,0,0,0,0,3.5H4V.25Z"/></svg><svg viewBox="0 0 4 4" x="328" y="776" width="64" height="64" shape-rendering="auto"><path fill="#000000" d="M2,3.75A1.75,1.75,0,0,0,2,.25H0v3.5Z"/></svg><svg viewBox="0 0 4 4" x="776" y="776" width="64" height="64" shape-rendering="auto"><circle fill="#000000" cx="2" cy="2" r="1.75"/></svg><svg viewBox="0 0 4 4" x="904" y="776" width="64" height="64" shape-rendering="auto"><circle fill="#000000" cx="2" cy="2" r="1.75"/></svg><svg viewBox="0 0 4 4" x="1096" y="776" width="64" height="64" shape-rendering="auto"><path fill="#000000" d="M2,.25a1.75,1.75,0,0,0,0,3.5H4V.25Z"/></svg><svg viewBox="0 0 4 4" x="1160" y="776" width="64" height="64" shape-rendering="auto"><rect fill="#000000" y="0.25" width="4" height="3.5"/></svg><svg viewBox="0 0 4 4" x="1224" y="776" width="64" height="64" shape-rendering="auto"><rect fill="#000000" y="0.25" width="4" height="3.5"/></svg><svg viewBox="0 0 4 4" x="1288" y="776" width="64" height="64" shape-rendering="auto"><path fill="#000000" d="M2,3.75A1.75,1.75,0,0,0,2,.25H0v3.5Z"/></svg><svg viewBox="0 0 4 4" x="1416" y="776" width="64" height="64" shape-rendering="auto"><path fill="#000000" d="M2,.25a1.75,1.75,0,0,0,0,3.5H4V.25Z"/></svg><svg viewBox="0 0 4 4" x="1480" y="776" width="64" height="64" shape-rendering="auto"><path fill="#000000" d="M2,3.75A1.75,1.75,0,0,0,2,.25H0v3.5Z"/></svg><svg viewBox="0 0 4 4" x="1736" y="776" width="64" height="64" shape-rendering="auto"><circle fill="#000000" cx="2" cy="2" r="1.75"/></svg><svg viewBox="0 0 4 4" x="264" y="840" width="64" height="64" shape-rendering="auto"><path fill="#000000" d="M2,.25a1.75,1.75,0,0,0,0,3.5H4V.25Z"/></svg><svg viewBox="0 0 4 4" x="328" y="840" width="64" height="64" shape-rendering="auto"><path fill="#000000" d="M2,3.75A1.75,1.75,0,0,0,2,.25H0v3.5Z"/></svg><svg viewBox="0 0 4 4" x="584" y="840" width="64" height="64" shape-rendering="auto"><circle fill="#000000" cx="2" cy="2" r="1.75"/></svg><svg viewBox="0 0 4 4" x="712" y="840" width="64" height="64" shape-rendering="auto"><path fill="#000000" d="M2,.25a1.75,1.75,0,0,0,0,3.5H4V.25Z"/></svg><svg viewBox="0 0 4 4" x="776" y="840" width="64" height="64" shape-rendering="auto"><path fill="#000000" d="M2,3.75A1.75,1.75,0,0,0,2,.25H0v3.5Z"/></svg><svg viewBox="0 0 4 4" x="904" y="840" width="64" height="64" shape-rendering="auto"><path fill="#000000" d="M2,.25a1.75,1.75,0,0,0,0,3.5H4V.25Z"/></svg><svg viewBox="0 0 4 4" x="968" y="840" width="64" height="64" shape-rendering="auto"><rect fill="#000000" y="0.25" width="4" height="3.5"/></svg><svg viewBox="0 0 4 4" x="1032" y="840" width="64" height="64" shape-rendering="auto"><rect fill="#000000" y="0.25" width="4" height="3.5"/></svg><svg viewBox="0 0 4 4" x="1096" y="840" width="64" height="64" shape-rendering="auto"><rect fill="#000000" y="0.25" width="4" height="3.5"/></svg><svg viewBox="0 0 4 4" x="1160" y="840" width="64" height="64" shape-rendering="auto"><path fill="#000000" d="M2,3.75A1.75,1.75,0,0,0,2,.25H0v3.5Z"/></svg><svg viewBox="0 0 4 4" x="1288" y="840" width="64" height="64" shape-rendering="auto"><path fill="#000000" d="M2,.25a1.75,1.75,0,0,0,0,3.5H4V.25Z"/></svg><svg viewBox="0 0 4 4" x="1352" y="840" width="64" height="64" shape-rendering="auto"><path fill="#000000" d="M2,3.75A1.75,1.75,0,0,0,2,.25H0v3.5Z"/></svg><svg viewBox="0 0 4 4" x="1480" y="840" width="64" height="64" shape-rendering="auto"><circle fill="#000000" cx="2" cy="2" r="1.75"/></svg><svg viewBox="0 0 4 4" x="1608" y="840" width="64" height="64" shape-rendering="auto"><circle fill="#000000" cx="2" cy="2" r="1.75"/></svg><svg viewBox="0 0 4 4" x="200" y="904" width="64" height="64" shape-rendering="auto"><path fill="#000000" d="M2,.25a1.75,1.75,0,0,0,0,3.5H4V.25Z"/></svg><svg viewBox="0 0 4 4" x="264" y="904" width="64" height="64" shape-rendering="auto"><rect fill="#000000" y="0.25" width="4" height="3.5"/></svg><svg viewBox="0 0 4 4" x="328" y="904" width="64" height="64" shape-rendering="auto"><rect fill="#000000" y="0.25" width="4" height="3.5"/></svg><svg viewBox="0 0 4 4" x="392" y="904" width="64" height="64" shape-rendering="auto"><rect fill="#000000" y="0.25" width="4" height="3.5"/></svg><svg viewBox="0 0 4 4" x="456" y="904" width="64" height="64" shape-rendering="auto"><path fill="#000000" d="M2,3.75A1.75,1.75,0,0,0,2,.25H0v3.5Z"/></svg><svg viewBox="0 0 4 4" x="776" y="904" width="64" height="64" shape-rendering="auto"><path fill="#000000" d="M2,.25a1.75,1.75,0,0,0,0,3.5H4V.25Z"/></svg><svg viewBox="0 0 4 4" x="840" y="904" width="64" height="64" shape-rendering="auto"><rect fill="#000000" y="0.25" width="4" height="3.5"/></svg><svg viewBox="0 0 4 4" x="904" y="904" width="64" height="64" shape-rendering="auto"><path fill="#000000" d="M2,3.75A1.75,1.75,0,0,0,2,.25H0v3.5Z"/></svg><svg viewBox="0 0 4 4" x="1096" y="904" width="64" height="64" shape-rendering="auto"><circle fill="#000000" cx="2" cy="2" r="1.75"/></svg><svg viewBox="0 0 4 4" x="1224" y="904" width="64" height="64" shape-rendering="auto"><path fill="#000000" d="M2,.25a1.75,1.75,0,0,0,0,3.5H4V.25Z"/></svg><svg viewBox="0 0 4 4" x="1288" y="904" width="64" height="64" shape-rendering="auto"><path fill="#000000" d="M2,3.75A1.75,1.75,0,0,0,2,.25H0v3.5Z"/></svg><svg viewBox="0 0 4 4" x="264" y="968" width="64" height="64" shape-rendering="auto"><path fill="#000000" d="M2,.25a1.75,1.75,0,0,0,0,3.5H4V.25Z"/></svg><svg viewBox="0 0 4 4" x="328" y="968" width="64" height="64" shape-rendering="auto"><path fill="#000000" d="M2,3.75A1.75,1.75,0,0,0,2,.25H0v3.5Z"/></svg><svg viewBox="0 0 4 4" x="520" y="968" width="64" height="64" shape-rendering="auto"><path fill="#000000" d="M2,.25a1.75,1.75,0,0,0,0,3.5H4V.25Z"/></svg><svg viewBox="0 0 4 4" x="584" y="968" width="64" height="64" shape-rendering="auto"><path fill="#000000" d="M2,3.75A1.75,1.75,0,0,0,2,.25H0v3.5Z"/></svg><svg viewBox="0 0 4 4" x="776" y="968" width="64" height="64" shape-rendering="auto"><circle fill="#000000" cx="2" cy="2" r="1.75"/></svg><svg viewBox="0 0 4 4" x="968" y="968" width="64" height="64" shape-rendering="auto"><circle fill="#000000" cx="2" cy="2" r="1.75"/></svg><svg viewBox="0 0 4 4" x="1160" y="968" width="64" height="64" shape-rendering="auto"><circle fill="#000000" cx="2" cy="2" r="1.75"/></svg><svg viewBox="0 0 4 4" x="1352" y="968" width="64" height="64" shape-rendering="auto"><path fill="#000000" d="M2,.25a1.75,1.75,0,0,0,0,3.5H4V.25Z"/></svg><svg viewBox="0 0 4 4" x="1416" y="968" width="64" height="64" shape-rendering="auto"><rect fill="#000000" y="0.25" width="4" height="3.5"/></svg><svg viewBox="0 0 4 4" x="1480" y="968" width="64" height="64" shape-rendering="auto"><rect fill="#000000" y="0.25" width="4" height="3.5"/></svg><svg viewBox="0 0 4 4" x="1544" y="968" width="64" height="64" shape-rendering="auto"><path fill="#000000" d="M2,3.75A1.75,1.75,0,0,0,2,.25H0v3.5Z"/></svg><svg viewBox="0 0 4 4" x="1672" y="968" width="64" height="64" shape-rendering="auto"><path fill="#000000" d="M2,.25a1.75,1.75,0,0,0,0,3.5H4V.25Z"/></svg><svg viewBox="0 0 4 4" x="1736" y="968" width="64" height="64" shape-rendering="auto"><path fill="#000000" d="M2,3.75A1.75,1.75,0,0,0,2,.25H0v3.5Z"/></svg><svg viewBox="0 0 4 4" x="200" y="1032" width="64" height="64" shape-rendering="auto"><circle fill="#000000" cx="2" cy="2" r="1.75"/></svg><svg viewBox="0 0 4 4" x="392" y="1032" width="64" height="64" shape-rendering="auto"><circle fill="#000000" cx="2" cy="2" r="1.75"/></svg><svg viewBox="0 0 4 4" x="520" y="1032" width="64" height="64" shape-rendering="auto"><circle fill="#000000" cx="2" cy="2" r="1.75"/></svg><svg viewBox="0 0 4 4" x="776" y="1032" width="64" height="64" shape-rendering="auto"><path fill="#000000" d="M2,.25a1.75,1.75,0,0,0,0,3.5H4V.25Z"/></svg><svg viewBox="0 0 4 4" x="840" y="1032" width="64" height="64" shape-rendering="auto"><path fill="#000000" d="M2,3.75A1.75,1.75,0,0,0,2,.25H0v3.5Z"/></svg><svg viewBox="0 0 4 4" x="1224" y="1032" width="64" height="64" shape-rendering="auto"><path fill="#000000" d="M2,.25a1.75,1.75,0,0,0,0,3.5H4V.25Z"/></svg><svg viewBox="0 0 4 4" x="1288" y="1032" width="64" height="64" shape-rendering="auto"><rect fill="#000000" y="0.25" width="4" height="3.5"/></svg><svg viewBox="0 0 4 4" x="1352" y="1032" width="64" height="64" shape-rendering="auto"><rect fill="#000000" y="0.25" width="4" height="3.5"/></svg><svg viewBox="0 0 4 4" x="1416" y="1032" width="64" height="64" shape-rendering="auto"><rect fill="#000000" y="0.25" width="4" height="3.5"/></svg><svg viewBox="0 0 4 4" x="1480" y="1032" width="64" height="64" shape-rendering="auto"><path fill="#000000" d="M2,3.75A1.75,1.75,0,0,0,2,.25H0v3.5Z"/></svg><svg viewBox="0 0 4 4" x="200" y="1096" width="64" height="64" shape-rendering="auto"><circle fill="#000000" cx="2" cy="2" r="1.75"/></svg><svg viewBox="0 0 4 4" x="456" y="1096" width="64" height="64" shape-rendering="auto"><path fill="#000000" d="M2,.25a1.75,1.75,0,0,0,0,3.5H4V.25Z"/></svg><svg viewBox="0 0 4 4" x="520" y="1096" width="64" height="64" shape-rendering="auto"><rect fill="#000000" y="0.25" width="4" height="3.5"/></svg><svg viewBox="0 0 4 4" x="584" y="1096" width="64" height="64" shape-rendering="auto"><rect fill="#000000" y="0.25" width="4" height="3.5"/></svg><svg viewBox="0 0 4 4" x="648" y="1096" width="64" height="64" shape-rendering="auto"><rect fill="#000000" y="0.25" width="4" height="3.5"/></svg><svg viewBox="0 0 4 4" x="712" y="1096" width="64" height="64" shape-rendering="auto"><rect fill="#000000" y="0.25" width="4" height="3.5"/></svg><svg viewBox="0 0 4 4" x="776" y="1096" width="64" height="64" shape-rendering="auto"><path fill="#000000" d="M2,3.75A1.75,1.75,0,0,0,2,.25H0v3.5Z"/></svg><svg viewBox="0 0 4 4" x="1032" y="1096" width="64" height="64" shape-rendering="auto"><path fill="#000000" d="M2,.25a1.75,1.75,0,0,0,0,3.5H4V.25Z"/></svg><svg viewBox="0 0 4 4" x="1096" y="1096" width="64" height="64" shape-rendering="auto"><path fill="#000000" d="M2,3.75A1.75,1.75,0,0,0,2,.25H0v3.5Z"/></svg><svg viewBox="0 0 4 4" x="1288" y="1096" width="64" height="64" shape-rendering="auto"><path fill="#000000" d="M2,.25a1.75,1.75,0,0,0,0,3.5H4V.25Z"/></svg><svg viewBox="0 0 4 4" x="1352" y="1096" width="64" height="64" shape-rendering="auto"><path fill="#000000" d="M2,3.75A1.75,1.75,0,0,0,2,.25H0v3.5Z"/></svg><svg viewBox="0 0 4 4" x="1480" y="1096" width="64" height="64" shape-rendering="auto"><circle fill="#000000" cx="2" cy="2" r="1.75"/></svg><svg viewBox="0 0 4 4" x="1608" y="1096" width="64" height="64" shape-rendering="auto"><circle fill="#000000" cx="2" cy="2" r="1.75"/></svg><svg viewBox="0 0 4 4" x="200" y="1160" width="64" height="64" shape-rendering="auto"><circle fill="#000000" cx="2" cy="2" r="1.75"/></svg><svg viewBox="0 0 4 4" x="456" y="1160" width="64" height="64" shape-rendering="auto"><path fill="#000000" d="M2,.25a1.75,1.75,0,0,0,0,3.5H4V.25Z"/></svg><svg viewBox="0 0 4 4" x="520" y="1160" width="64" height="64" shape-rendering="auto"><path fill="#000000" d="M2,3.75A1.75,1.75,0,0,0,2,.25H0v3.5Z"/></svg><svg viewBox="0 0 4 4" x="648" y="1160" width="64" height="64" shape-rendering="auto"><circle fill="#000000" cx="2" cy="2" r="1.75"/></svg><svg viewBox="0 0 4 4" x="776" y="1160" width="64" height="64" shape-rendering="auto"><path fill="#000000" d="M2,.25a1.75,1.75,0,0,0,0,3.5H4V.25Z"/></svg><svg viewBox="0 0 4 4" x="840" y="1160" width="64" height="64" shape-rendering="auto"><rect fill="#000000" y="0.25" width="4" height="3.5"/></svg><svg viewBox="0 0 4 4" x="904" y="1160" width="64" height="64" shape-rendering="auto"><path fill="#000000" d="M2,3.75A1.75,1.75,0,0,0,2,.25H0v3.5Z"/></svg><svg viewBox="0 0 4 4" x="1032" y="1160" width="64" height="64" shape-rendering="auto"><circle fill="#000000" cx="2" cy="2" r="1.75"/></svg><svg viewBox="0 0 4 4" x="1288" y="1160" width="64" height="64" shape-rendering="auto"><circle fill="#000000" cx="2" cy="2" r="1.75"/></svg><svg viewBox="0 0 4 4" x="1672" y="1160" width="64" height="64" shape-rendering="auto"><path fill="#000000" d="M2,.25a1.75,1.75,0,0,0,0,3.5H4V.25Z"/></svg><svg viewBox="0 0 4 4" x="1736" y="1160" width="64" height="64" shape-rendering="auto"><path fill="#000000" d="M2,3.75A1.75,1.75,0,0,0,2,.25H0v3.5Z"/></svg><svg viewBox="0 0 4 4" x="200" y="1224" width="64" height="64" shape-rendering="auto"><circle fill="#000000" cx="2" cy="2" r="1.75"/></svg><svg viewBox="0 0 4 4" x="392" y="1224" width="64" height="64" shape-rendering="auto"><circle fill="#000000" cx="2" cy="2" r="1.75"/></svg><svg viewBox="0 0 4 4" x="520" y="1224" width="64" height="64" shape-rendering="auto"><path fill="#000000" d="M2,.25a1.75,1.75,0,0,0,0,3.5H4V.25Z"/></svg><svg viewBox="0 0 4 4" x="584" y="1224" width="64" height="64" shape-rendering="auto"><path fill="#000000" d="M2,3.75A1.75,1.75,0,0,0,2,.25H0v3.5Z"/></svg><svg viewBox="0 0 4 4" x="1160" y="1224" width="64" height="64" shape-rendering="auto"><path fill="#000000" d="M2,.25a1.75,1.75,0,0,0,0,3.5H4V.25Z"/></svg><svg viewBox="0 0 4 4" x="1224" y="1224" width="64" height="64" shape-rendering="auto"><rect fill="#000000" y="0.25" width="4" height="3.5"/></svg><svg viewBox="0 0 4 4" x="1288" y="1224" width="64" height="64" shape-rendering="auto"><rect fill="#000000" y="0.25" width="4" height="3.5"/></svg><svg viewBox="0 0 4 4" x="1352" y="1224" width="64" height="64" shape-rendering="auto"><rect fill="#000000" y="0.25" width="4" height="3.5"/></svg><svg viewBox="0 0 4 4" x="1416" y="1224" width="64" height="64" shape-rendering="auto"><rect fill="#000000" y="0.25" width="4" height="3.5"/></svg><svg viewBox="0 0 4 4" x="1480" y="1224" width="64" height="64" shape-rendering="auto"><rect fill="#000000" y="0.25" width="4" height="3.5"/></svg><svg viewBox="0 0 4 4" x="1544" y="1224" width="64" height="64" shape-rendering="auto"><path fill="#000000" d="M2,3.75A1.75,1.75,0,0,0,2,.25H0v3.5Z"/></svg><svg viewBox="0 0 4 4" x="1736" y="1224" width="64" height="64" shape-rendering="auto"><circle fill="#000000" cx="2" cy="2" r="1.75"/></svg><svg viewBox="0 0 4 4" x="712" y="1288" width="64" height="64" shape-rendering="auto"><circle fill="#000000" cx="2" cy="2" r="1.75"/></svg><svg viewBox="0 0 4 4" x="904" y="1288" width="64" height="64" shape-rendering="auto"><circle fill="#000000" cx="2" cy="2" r="1.75"/></svg><svg viewBox="0 0 4 4" x="1096" y="1288" width="64" height="64" shape-rendering="auto"><circle fill="#000000" cx="2" cy="2" r="1.75"/></svg><svg viewBox="0 0 4 4" x="1224" y="1288" width="64" height="64" shape-rendering="auto"><circle fill="#000000" cx="2" cy="2" r="1.75"/></svg><svg viewBox="0 0 4 4" x="1480" y="1288" width="64" height="64" shape-rendering="auto"><circle fill="#000000" cx="2" cy="2" r="1.75"/></svg><svg viewBox="0 0 4 4" x="1736" y="1288" width="64" height="64" shape-rendering="auto"><circle fill="#000000" cx="2" cy="2" r="1.75"/></svg><svg viewBox="0 0 4 4" x="712" y="1352" width="64" height="64" shape-rendering="auto"><path fill="#000000" d="M2,.25a1.75,1.75,0,0,0,0,3.5H4V.25Z"/></svg><svg viewBox="0 0 4 4" x="776" y="1352" width="64" height="64" shape-rendering="auto"><path fill="#000000" d="M2,3.75A1.75,1.75,0,0,0,2,.25H0v3.5Z"/></svg><svg viewBox="0 0 4 4" x="904" y="1352" width="64" height="64" shape-rendering="auto"><path fill="#000000" d="M2,.25a1.75,1.75,0,0,0,0,3.5H4V.25Z"/></svg><svg viewBox="0 0 4 4" x="968" y="1352" width="64" height="64" shape-rendering="auto"><rect fill="#000000" y="0.25" width="4" height="3.5"/></svg><svg viewBox="0 0 4 4" x="1032" y="1352" width="64" height="64" shape-rendering="auto"><rect fill="#000000" y="0.25" width="4" height="3.5"/></svg><svg viewBox="0 0 4 4" x="1096" y="1352" width="64" height="64" shape-rendering="auto"><path fill="#000000" d="M2,3.75A1.75,1.75,0,0,0,2,.25H0v3.5Z"/></svg><svg viewBox="0 0 4 4" x="1224" y="1352" width="64" height="64" shape-rendering="auto"><circle fill="#000000" cx="2" cy="2" r="1.75"/></svg><svg viewBox="0 0 4 4" x="1352" y="1352" width="64" height="64" shape-rendering="auto"><circle fill="#000000" cx="2" cy="2" r="1.75"/></svg><svg viewBox="0 0 4 4" x="1480" y="1352" width="64" height="64" shape-rendering="auto"><circle fill="#000000" cx="2" cy="2" r="1.75"/></svg><svg viewBox="0 0 4 4" x="1608" y="1352" width="64" height="64" shape-rendering="auto"><path fill="#000000" d="M2,.25a1.75,1.75,0,0,0,0,3.5H4V.25Z"/></svg><svg viewBox="0 0 4 4" x="1672" y="1352" width="64" height="64" shape-rendering="auto"><rect fill="#000000" y="0.25" width="4" height="3.5"/></svg><svg viewBox="0 0 4 4" x="1736" y="1352" width="64" height="64" shape-rendering="auto"><path fill="#000000" d="M2,3.75A1.75,1.75,0,0,0,2,.25H0v3.5Z"/></svg><svg viewBox="0 0 4 4" x="904" y="1416" width="64" height="64" shape-rendering="auto"><circle fill="#000000" cx="2" cy="2" r="1.75"/></svg><svg viewBox="0 0 4 4" x="1224" y="1416" width="64" height="64" shape-rendering="auto"><circle fill="#000000" cx="2" cy="2" r="1.75"/></svg><svg viewBox="0 0 4 4" x="1480" y="1416" width="64" height="64" shape-rendering="auto"><path fill="#000000" d="M2,.25a1.75,1.75,0,0,0,0,3.5H4V.25Z"/></svg><svg viewBox="0 0 4 4" x="1544" y="1416" width="64" height="64" shape-rendering="auto"><path fill="#000000" d="M2,3.75A1.75,1.75,0,0,0,2,.25H0v3.5Z"/></svg><svg viewBox="0 0 4 4" x="712" y="1480" width="64" height="64" shape-rendering="auto"><circle fill="#000000" cx="2" cy="2" r="1.75"/></svg><svg viewBox="0 0 4 4" x="840" y="1480" width="64" height="64" shape-rendering="auto"><circle fill="#000000" cx="2" cy="2" r="1.75"/></svg><svg viewBox="0 0 4 4" x="968" y="1480" width="64" height="64" shape-rendering="auto"><circle fill="#000000" cx="2" cy="2" r="1.75"/></svg><svg viewBox="0 0 4 4" x="1096" y="1480" width="64" height="64" shape-rendering="auto"><circle fill="#000000" cx="2" cy="2" r="1.75"/></svg><svg viewBox="0 0 4 4" x="1224" y="1480" width="64" height="64" shape-rendering="auto"><path fill="#000000" d="M2,.25a1.75,1.75,0,0,0,0,3.5H4V.25Z"/></svg><svg viewBox="0 0 4 4" x="1288" y="1480" width="64" height="64" shape-rendering="auto"><rect fill="#000000" y="0.25" width="4" height="3.5"/></svg><svg viewBox="0 0 4 4" x="1352" y="1480" width="64" height="64" shape-rendering="auto"><rect fill="#000000" y="0.25" width="4" height="3.5"/></svg><svg viewBox="0 0 4 4" x="1416" y="1480" width="64" height="64" shape-rendering="auto"><rect fill="#000000" y="0.25" width="4" height="3.5"/></svg><svg viewBox="0 0 4 4" x="1480" y="1480" width="64" height="64" shape-rendering="auto"><rect fill="#000000" y="0.25" width="4" height="3.5"/></svg><svg viewBox="0 0 4 4" x="1544" y="1480" width="64" height="64" shape-rendering="auto"><path fill="#000000" d="M2,3.75A1.75,1.75,0,0,0,2,.25H0v3.5Z"/></svg><svg viewBox="0 0 4 4" x="712" y="1544" width="64" height="64" shape-rendering="auto"><path fill="#000000" d="M2,.25a1.75,1.75,0,0,0,0,3.5H4V.25Z"/></svg><svg viewBox="0 0 4 4" x="776" y="1544" width="64" height="64" shape-rendering="auto"><path fill="#000000" d="M2,3.75A1.75,1.75,0,0,0,2,.25H0v3.5Z"/></svg><svg viewBox="0 0 4 4" x="904" y="1544" width="64" height="64" shape-rendering="auto"><path fill="#000000" d="M2,.25a1.75,1.75,0,0,0,0,3.5H4V.25Z"/></svg><svg viewBox="0 0 4 4" x="968" y="1544" width="64" height="64" shape-rendering="auto"><path fill="#000000" d="M2,3.75A1.75,1.75,0,0,0,2,.25H0v3.5Z"/></svg><svg viewBox="0 0 4 4" x="1160" y="1544" width="64" height="64" shape-rendering="auto"><path fill="#000000" d="M2,.25a1.75,1.75,0,0,0,0,3.5H4V.25Z"/></svg><svg viewBox="0 0 4 4" x="1224" y="1544" width="64" height="64" shape-rendering="auto"><path fill="#000000" d="M2,3.75A1.75,1.75,0,0,0,2,.25H0v3.5Z"/></svg><svg viewBox="0 0 4 4" x="1352" y="1544" width="64" height="64" shape-rendering="auto"><circle fill="#000000" cx="2" cy="2" r="1.75"/></svg><svg viewBox="0 0 4 4" x="1480" y="1544" width="64" height="64" shape-rendering="auto"><circle fill="#000000" cx="2" cy="2" r="1.75"/></svg><svg viewBox="0 0 4 4" x="1672" y="1544" width="64" height="64" shape-rendering="auto"><path fill="#000000" d="M2,.25a1.75,1.75,0,0,0,0,3.5H4V.25Z"/></svg><svg viewBox="0 0 4 4" x="1736" y="1544" width="64" height="64" shape-rendering="auto"><path fill="#000000" d="M2,3.75A1.75,1.75,0,0,0,2,.25H0v3.5Z"/></svg><svg viewBox="0 0 4 4" x="712" y="1608" width="64" height="64" shape-rendering="auto"><path fill="#000000" d="M2,.25a1.75,1.75,0,0,0,0,3.5H4V.25Z"/></svg><svg viewBox="0 0 4 4" x="776" y="1608" width="64" height="64" shape-rendering="auto"><rect fill="#000000" y="0.25" width="4" height="3.5"/></svg><svg viewBox="0 0 4 4" x="840" y="1608" width="64" height="64" shape-rendering="auto"><path fill="#000000" d="M2,3.75A1.75,1.75,0,0,0,2,.25H0v3.5Z"/></svg><svg viewBox="0 0 4 4" x="1032" y="1608" width="64" height="64" shape-rendering="auto"><path fill="#000000" d="M2,.25a1.75,1.75,0,0,0,0,3.5H4V.25Z"/></svg><svg viewBox="0 0 4 4" x="1096" y="1608" width="64" height="64" shape-rendering="auto"><path fill="#000000" d="M2,3.75A1.75,1.75,0,0,0,2,.25H0v3.5Z"/></svg><svg viewBox="0 0 4 4" x="1480" y="1608" width="64" height="64" shape-rendering="auto"><circle fill="#000000" cx="2" cy="2" r="1.75"/></svg><svg viewBox="0 0 4 4" x="1608" y="1608" width="64" height="64" shape-rendering="auto"><circle fill="#000000" cx="2" cy="2" r="1.75"/></svg><svg viewBox="0 0 4 4" x="1736" y="1608" width="64" height="64" shape-rendering="auto"><circle fill="#000000" cx="2" cy="2" r="1.75"/></svg><svg viewBox="0 0 4 4" x="712" y="1672" width="64" height="64" shape-rendering="auto"><path fill="#000000" d="M2,.25a1.75,1.75,0,0,0,0,3.5H4V.25Z"/></svg><svg viewBox="0 0 4 4" x="776" y="1672" width="64" height="64" shape-rendering="auto"><rect fill="#000000" y="0.25" width="4" height="3.5"/></svg><svg viewBox="0 0 4 4" x="840" y="1672" width="64" height="64" shape-rendering="auto"><rect fill="#000000" y="0.25" width="4" height="3.5"/></svg><svg viewBox="0 0 4 4" x="904" y="1672" width="64" height="64" shape-rendering="auto"><path fill="#000000" d="M2,3.75A1.75,1.75,0,0,0,2,.25H0v3.5Z"/></svg><svg viewBox="0 0 4 4" x="1096" y="1672" width="64" height="64" shape-rendering="auto"><circle fill="#000000" cx="2" cy="2" r="1.75"/></svg><svg viewBox="0 0 4 4" x="1224" y="1672" width="64" height="64" shape-rendering="auto"><path fill="#000000" d="M2,.25a1.75,1.75,0,0,0,0,3.5H4V.25Z"/></svg><svg viewBox="0 0 4 4" x="1288" y="1672" width="64" height="64" shape-rendering="auto"><rect fill="#000000" y="0.25" width="4" height="3.5"/></svg><svg viewBox="0 0 4 4" x="1352" y="1672" width="64" height="64" shape-rendering="auto"><rect fill="#000000" y="0.25" width="4" height="3.5"/></svg><svg viewBox="0 0 4 4" x="1416" y="1672" width="64" height="64" shape-rendering="auto"><rect fill="#000000" y="0.25" width="4" height="3.5"/></svg><svg viewBox="0 0 4 4" x="1480" y="1672" width="64" height="64" shape-rendering="auto"><rect fill="#000000" y="0.25" width="4" height="3.5"/></svg><svg viewBox="0 0 4 4" x="1544" y="1672" width="64" height="64" shape-rendering="auto"><path fill="#000000" d="M2,3.75A1.75,1.75,0,0,0,2,.25H0v3.5Z"/></svg><svg viewBox="0 0 4 4" x="1672" y="1672" width="64" height="64" shape-rendering="auto"><circle fill="#000000" cx="2" cy="2" r="1.75"/></svg><svg viewBox="0 0 4 4" x="712" y="1736" width="64" height="64" shape-rendering="auto"><path fill="#000000" d="M2,.25a1.75,1.75,0,0,0,0,3.5H4V.25Z"/></svg><svg viewBox="0 0 4 4" x="776" y="1736" width="64" height="64" shape-rendering="auto"><rect fill="#000000" y="0.25" width="4" height="3.5"/></svg><svg viewBox="0 0 4 4" x="840" y="1736" width="64" height="64" shape-rendering="auto"><path fill="#000000" d="M2,3.75A1.75,1.75,0,0,0,2,.25H0v3.5Z"/></svg><svg viewBox="0 0 4 4" x="968" y="1736" width="64" height="64" shape-rendering="auto"><circle fill="#000000" cx="2" cy="2" r="1.75"/></svg><svg viewBox="0 0 4 4" x="1160" y="1736" width="64" height="64" shape-rendering="auto"><circle fill="#000000" cx="2" cy="2" r="1.75"/></svg><svg viewBox="0 0 4 4" x="1608" y="1736" width="64" height="64" shape-rendering="auto"><path fill="#000000" d="M2,.25a1.75,1.75,0,0,0,0,3.5H4V.25Z"/></svg><svg viewBox="0 0 4 4" x="1672" y="1736" width="64" height="64" shape-rendering="auto"><rect fill="#000000" y="0.25" width="4" height="3.5"/></svg><svg viewBox="0 0 4 4" x="1736" y="1736" width="64" height="64" shape-rendering="auto"><path fill="#000000" d="M2,3.75A1.75,1.75,0,0,0,2,.25H0v3.5Z"/></svg><svg version="1.0" id="Ebene_1" x="200" y="200" width="448" height="448" viewBox="0 0 699.988 699.986" enable-background="new 0 0 699.988 699.986" xml:space="preserve" shape-rendering="auto">
<g>
	<path fill="#000000" d="M228.523,0h242.945c60.829,0,118.159,23.83,161.427,67.104c43.266,43.269,67.094,100.597,67.094,161.423   v471.459H228.523c-60.83,0-118.16-23.828-161.425-67.097C23.829,589.618,0.001,532.294,0.001,471.463V228.524   c0-60.827,23.828-118.155,67.096-161.423C110.365,23.83,167.693,0,228.523,0z M599.989,599.986V239.233   c0-76.773-62.458-139.234-139.228-139.234h-221.53c-76.772,0-139.232,62.461-139.232,139.234v221.521   c0,76.769,62.46,139.229,139.232,139.229L599.989,599.986L599.989,599.986z"/>
</g>
</svg>
<svg version="1.1" id="Ebene_1" x="200" y="200" width="448" height="448" viewBox="0 0 699.988 699.986" enable-background="new 0 0 699.988 699.986" xml:space="preserve" shape-rendering="auto">
<path fill="#000000" d="M199.997,408.376c0,50.385,41.23,91.613,91.613,91.613h208.381V291.611  c-0.001-50.384-41.229-91.614-91.611-91.614H291.61c-50.383,0-91.613,41.23-91.613,91.614V408.376L199.997,408.376z"/>
</svg>
<svg version="1.0" id="Ebene_1" x="1352" y="200" width="448" height="448" viewBox="0 0 699.988 699.986" enable-background="new 0 0 699.988 699.986" xml:space="preserve" shape-rendering="auto">
<g>
	<path fill="#000000" d="M228.523,0h242.945c60.829,0,118.159,23.83,161.427,67.104c43.266,43.269,67.094,100.597,67.094,161.423   v471.459H228.523c-60.83,0-118.16-23.828-161.425-67.097C23.829,589.618,0.001,532.294,0.001,471.463V228.524   c0-60.827,23.828-118.155,67.096-161.423C110.365,23.83,167.693,0,228.523,0z M599.989,599.986V239.233   c0-76.773-62.458-139.234-139.228-139.234h-221.53c-76.772,0-139.232,62.461-139.232,139.234v221.521   c0,76.769,62.46,139.229,139.232,139.229L599.989,599.986L599.989,599.986z"/>
</g>
</svg>
<svg version="1.1" id="Ebene_1" x="1352" y="200" width="448" height="448" viewBox="0 0 699.988 699.986" enable-background="new 0 0 699.988 699.986" xml:space="preserve" shape-rendering="auto">
<path fill="#000000" d="M199.997,408.376c0,50.385,41.23,91.613,91.613,91.613h208.381V291.611  c-0.001-50.384-41.229-91.614-91.611-91.614H291.61c-50.383,0-91.613,41.23-91.613,91.614V408.376L199.997,408.376z"/>
</svg>
<svg version="1.0" id="Ebene_1" x="200" y="1352" width="448" height="448" viewBox="0 0 699.988 699.986" enable-background="new 0 0 699.988 699.986" xml:space="preserve" shape-rendering="auto">
<g>
	<path fill="#000000" d="M228.523,0h242.945c60.829,0,118.159,23.83,161.427,67.104c43.266,43.269,67.094,100.597,67.094,161.423   v471.459H228.523c-60.83,0-118.16-23.828-161.425-67.097C23.829,589.618,0.001,532.294,0.001,471.463V228.524   c0-60.827,23.828-118.155,67.096-161.423C110.365,23.83,167.693,0,228.523,0z M599.989,599.986V239.233   c0-76.773-62.458-139.234-139.228-139.234h-221.53c-76.772,0-139.232,62.461-139.232,139.234v221.521   c0,76.769,62.46,139.229,139.232,139.229L599.989,599.986L599.989,599.986z"/>
</g>
</svg>
<svg version="1.1" id="Ebene_1" x="200" y="1352" width="448" height="448" viewBox="0 0 699.988 699.986" enable-background="new 0 0 699.988 699.986" xml:space="preserve" shape-rendering="auto">
<path fill="#000000" d="M199.997,408.376c0,50.385,41.23,91.613,91.613,91.613h208.381V291.611  c-0.001-50.384-41.229-91.614-91.611-91.614H291.61c-50.383,0-91.613,41.23-91.613,91.614V408.376L199.997,408.376z"/>
</svg>
</svg>

</svg>
